<mxfile host="app.diagrams.net" agent="Mozilla/5.0 (X11; Linux x86_64) AppleWebKit/537.36 (KHTML, like Gecko) Chrome/118.0.5615.213 Safari/537.36" version="26.0.16">
  <diagram name="Page-1" id="3I6mRa5P5nZsIQNZ7VRq">
    <mxGraphModel dx="1098" dy="701" grid="1" gridSize="10" guides="1" tooltips="1" connect="1" arrows="1" fold="1" page="1" pageScale="1" pageWidth="4681" pageHeight="3300" math="0" shadow="0">
      <root>
        <mxCell id="0" />
        <mxCell id="1" parent="0" />
        <mxCell id="i-SSKv4laA4iEFBlzxF1-1" value="First end-of-shift report for patient A" style="swimlane;fontStyle=0;childLayout=stackLayout;horizontal=1;startSize=40;strokeColor=#DAEEF3;strokeWidth=3;fillColor=none;horizontalStack=0;resizeParent=1;resizeParentMax=0;resizeLast=0;collapsible=1;marginBottom=0;whiteSpace=wrap;html=1;labelPadding=0;" parent="1" vertex="1">
          <mxGeometry x="310" y="440" width="150" height="66" as="geometry" />
        </mxCell>
        <mxCell id="i-SSKv4laA4iEFBlzxF1-2" value="Record" style="text;strokeColor=#DAEEF3;strokeWidth=3;fillColor=none;align=center;verticalAlign=top;spacingLeft=4;spacingRight=4;overflow=hidden;rotatable=0;points=[[0,0.5],[1,0.5]];portConstraint=eastwest;whiteSpace=wrap;html=1;" parent="i-SSKv4laA4iEFBlzxF1-1" vertex="1">
          <mxGeometry y="40" width="150" height="26" as="geometry" />
        </mxCell>
        <mxCell id="i-SSKv4laA4iEFBlzxF1-3" value="" style="endArrow=classic;html=1;rounded=0;entryX=-0.02;entryY=-0.01;entryDx=0;entryDy=0;entryPerimeter=0;exitX=1.005;exitY=0.56;exitDx=0;exitDy=0;exitPerimeter=0;" parent="1" target="urL7mEImCn63v73o6za4-3" edge="1" source="i-SSKv4laA4iEFBlzxF1-1">
          <mxGeometry relative="1" as="geometry">
            <mxPoint x="530" y="475.5" as="sourcePoint" />
            <mxPoint x="710" y="476" as="targetPoint" />
          </mxGeometry>
        </mxCell>
        <mxCell id="i-SSKv4laA4iEFBlzxF1-4" value="precedes or preceded" style="edgeLabel;resizable=0;html=1;;align=center;verticalAlign=middle;" parent="i-SSKv4laA4iEFBlzxF1-3" connectable="0" vertex="1">
          <mxGeometry relative="1" as="geometry" />
        </mxCell>
        <mxCell id="i-SSKv4laA4iEFBlzxF1-9" value="" style="endArrow=classic;html=1;rounded=0;entryX=0;entryY=0.5;entryDx=0;entryDy=0;exitX=1.012;exitY=-0.13;exitDx=0;exitDy=0;exitPerimeter=0;entryPerimeter=0;" parent="1" target="urL7mEImCn63v73o6za4-4" edge="1" source="urL7mEImCn63v73o6za4-3">
          <mxGeometry relative="1" as="geometry">
            <mxPoint x="860" y="475.5" as="sourcePoint" />
            <mxPoint x="1031.82" y="476.98800000000006" as="targetPoint" />
          </mxGeometry>
        </mxCell>
        <mxCell id="i-SSKv4laA4iEFBlzxF1-10" value="precedes or preceded" style="edgeLabel;resizable=0;html=1;;align=center;verticalAlign=middle;" parent="i-SSKv4laA4iEFBlzxF1-9" connectable="0" vertex="1">
          <mxGeometry relative="1" as="geometry">
            <mxPoint x="-4" y="-1" as="offset" />
          </mxGeometry>
        </mxCell>
        <mxCell id="urL7mEImCn63v73o6za4-2" value="Second end-of-shift report for patient A" style="swimlane;fontStyle=0;childLayout=stackLayout;horizontal=1;startSize=40;strokeColor=#DAEEF3;strokeWidth=3;fillColor=none;horizontalStack=0;resizeParent=1;resizeParentMax=0;resizeLast=0;collapsible=1;marginBottom=0;whiteSpace=wrap;html=1;labelPadding=0;" vertex="1" parent="1">
          <mxGeometry x="760" y="438" width="150" height="66" as="geometry" />
        </mxCell>
        <mxCell id="urL7mEImCn63v73o6za4-3" value="Record" style="text;strokeColor=#DAEEF3;strokeWidth=3;fillColor=none;align=center;verticalAlign=top;spacingLeft=4;spacingRight=4;overflow=hidden;rotatable=0;points=[[0,0.5],[1,0.5]];portConstraint=eastwest;whiteSpace=wrap;html=1;" vertex="1" parent="urL7mEImCn63v73o6za4-2">
          <mxGeometry y="40" width="150" height="26" as="geometry" />
        </mxCell>
        <mxCell id="urL7mEImCn63v73o6za4-4" value="Third end-of-shift report for patient A" style="swimlane;fontStyle=0;childLayout=stackLayout;horizontal=1;startSize=40;strokeColor=#DAEEF3;strokeWidth=3;fillColor=none;horizontalStack=0;resizeParent=1;resizeParentMax=0;resizeLast=0;collapsible=1;marginBottom=0;whiteSpace=wrap;html=1;labelPadding=0;" vertex="1" parent="1">
          <mxGeometry x="1120" y="440" width="150" height="66" as="geometry" />
        </mxCell>
        <mxCell id="urL7mEImCn63v73o6za4-5" value="Record" style="text;strokeColor=#DAEEF3;strokeWidth=3;fillColor=none;align=center;verticalAlign=top;spacingLeft=4;spacingRight=4;overflow=hidden;rotatable=0;points=[[0,0.5],[1,0.5]];portConstraint=eastwest;whiteSpace=wrap;html=1;" vertex="1" parent="urL7mEImCn63v73o6za4-4">
          <mxGeometry y="40" width="150" height="26" as="geometry" />
        </mxCell>
        <mxCell id="urL7mEImCn63v73o6za4-7" value="Second shift of 27th February" style="swimlane;fontStyle=0;childLayout=stackLayout;horizontal=1;startSize=30;strokeColor=#FFFAA0;strokeWidth=3;fillColor=none;horizontalStack=0;resizeParent=1;resizeParentMax=0;resizeLast=0;collapsible=1;marginBottom=0;whiteSpace=wrap;html=1;" vertex="1" parent="1">
          <mxGeometry x="310" y="250" width="160" height="56" as="geometry" />
        </mxCell>
        <mxCell id="urL7mEImCn63v73o6za4-8" value="Activity" style="text;strokeColor=#FFFAA0;strokeWidth=3;fillColor=none;align=center;verticalAlign=top;spacingLeft=4;spacingRight=4;overflow=hidden;rotatable=0;points=[[0,0.5],[1,0.5]];portConstraint=eastwest;whiteSpace=wrap;html=1;" vertex="1" parent="urL7mEImCn63v73o6za4-7">
          <mxGeometry y="30" width="160" height="26" as="geometry" />
        </mxCell>
        <mxCell id="urL7mEImCn63v73o6za4-9" value="" style="endArrow=classic;html=1;rounded=0;exitX=0.437;exitY=1.109;exitDx=0;exitDy=0;exitPerimeter=0;" edge="1" parent="1" source="urL7mEImCn63v73o6za4-8">
          <mxGeometry relative="1" as="geometry">
            <mxPoint x="630" y="370.0000000000002" as="sourcePoint" />
            <mxPoint x="380" y="440" as="targetPoint" />
          </mxGeometry>
        </mxCell>
        <mxCell id="urL7mEImCn63v73o6za4-10" value="results or resulted in" style="edgeLabel;resizable=0;html=1;;align=center;verticalAlign=middle;" connectable="0" vertex="1" parent="urL7mEImCn63v73o6za4-9">
          <mxGeometry relative="1" as="geometry" />
        </mxCell>
        <mxCell id="urL7mEImCn63v73o6za4-11" value="" style="endArrow=classic;html=1;rounded=0;" edge="1" parent="1" source="urL7mEImCn63v73o6za4-26">
          <mxGeometry relative="1" as="geometry">
            <mxPoint x="780" y="348.0039999999999" as="sourcePoint" />
            <mxPoint x="830" y="438" as="targetPoint" />
          </mxGeometry>
        </mxCell>
        <mxCell id="urL7mEImCn63v73o6za4-12" value="results or resulted in" style="edgeLabel;resizable=0;html=1;;align=center;verticalAlign=middle;" connectable="0" vertex="1" parent="urL7mEImCn63v73o6za4-11">
          <mxGeometry relative="1" as="geometry" />
        </mxCell>
        <mxCell id="urL7mEImCn63v73o6za4-13" value="" style="endArrow=classic;html=1;rounded=0;entryX=0.5;entryY=0;entryDx=0;entryDy=0;exitX=0.514;exitY=0.964;exitDx=0;exitDy=0;exitPerimeter=0;" edge="1" parent="1" source="urL7mEImCn63v73o6za4-28" target="urL7mEImCn63v73o6za4-4">
          <mxGeometry relative="1" as="geometry">
            <mxPoint x="1190" y="310" as="sourcePoint" />
            <mxPoint x="810" y="431" as="targetPoint" />
          </mxGeometry>
        </mxCell>
        <mxCell id="urL7mEImCn63v73o6za4-14" value="results or resulted in" style="edgeLabel;resizable=0;html=1;;align=center;verticalAlign=middle;" connectable="0" vertex="1" parent="urL7mEImCn63v73o6za4-13">
          <mxGeometry relative="1" as="geometry" />
        </mxCell>
        <mxCell id="urL7mEImCn63v73o6za4-15" value="Nurse 1" style="swimlane;fontStyle=0;childLayout=stackLayout;horizontal=1;startSize=26;strokeColor=#E5DFEC;strokeWidth=3;fillColor=none;horizontalStack=0;resizeParent=1;resizeParentMax=0;resizeLast=0;collapsible=1;marginBottom=0;whiteSpace=wrap;html=1;" vertex="1" parent="1">
          <mxGeometry x="560" y="110" width="90" height="52" as="geometry" />
        </mxCell>
        <mxCell id="urL7mEImCn63v73o6za4-16" value="Person" style="text;strokeColor=#E5DFEC;strokeWidth=3;fillColor=none;align=center;verticalAlign=top;spacingLeft=4;spacingRight=4;overflow=hidden;rotatable=0;points=[[0,0.5],[1,0.5]];portConstraint=eastwest;whiteSpace=wrap;html=1;" vertex="1" parent="urL7mEImCn63v73o6za4-15">
          <mxGeometry y="26" width="90" height="26" as="geometry" />
        </mxCell>
        <mxCell id="urL7mEImCn63v73o6za4-17" value="" style="endArrow=classic;html=1;rounded=0;entryX=0.803;entryY=0.011;entryDx=0;entryDy=0;exitX=0.083;exitY=1.117;exitDx=0;exitDy=0;exitPerimeter=0;entryPerimeter=0;" edge="1" parent="1" source="urL7mEImCn63v73o6za4-16" target="i-SSKv4laA4iEFBlzxF1-1">
          <mxGeometry relative="1" as="geometry">
            <mxPoint x="630" y="220" as="sourcePoint" />
            <mxPoint x="460" y="510" as="targetPoint" />
          </mxGeometry>
        </mxCell>
        <mxCell id="urL7mEImCn63v73o6za4-18" value="is author of" style="edgeLabel;resizable=0;html=1;;align=center;verticalAlign=middle;" connectable="0" vertex="1" parent="urL7mEImCn63v73o6za4-17">
          <mxGeometry relative="1" as="geometry">
            <mxPoint x="-14" y="27" as="offset" />
          </mxGeometry>
        </mxCell>
        <mxCell id="urL7mEImCn63v73o6za4-19" value="" style="endArrow=classic;html=1;rounded=0;curved=1;exitX=1;exitY=0;exitDx=0;exitDy=0;entryX=1;entryY=0;entryDx=0;entryDy=0;" edge="1" parent="1" source="urL7mEImCn63v73o6za4-15" target="urL7mEImCn63v73o6za4-4">
          <mxGeometry relative="1" as="geometry">
            <mxPoint x="740" y="70" as="sourcePoint" />
            <mxPoint x="1230" y="420" as="targetPoint" />
            <Array as="points">
              <mxPoint x="1090" y="-40" />
              <mxPoint x="1400" y="160" />
            </Array>
          </mxGeometry>
        </mxCell>
        <mxCell id="urL7mEImCn63v73o6za4-20" value="is author of" style="edgeLabel;resizable=0;html=1;;align=center;verticalAlign=middle;" connectable="0" vertex="1" parent="urL7mEImCn63v73o6za4-19">
          <mxGeometry relative="1" as="geometry">
            <mxPoint x="95" y="69" as="offset" />
          </mxGeometry>
        </mxCell>
        <mxCell id="urL7mEImCn63v73o6za4-25" value="First shift of 28th February" style="swimlane;fontStyle=0;childLayout=stackLayout;horizontal=1;startSize=30;strokeColor=#FFFAA0;strokeWidth=3;fillColor=none;horizontalStack=0;resizeParent=1;resizeParentMax=0;resizeLast=0;collapsible=1;marginBottom=0;whiteSpace=wrap;html=1;" vertex="1" parent="1">
          <mxGeometry x="750" y="248" width="160" height="56" as="geometry" />
        </mxCell>
        <mxCell id="urL7mEImCn63v73o6za4-26" value="Activity" style="text;strokeColor=#FFFAA0;strokeWidth=3;fillColor=none;align=center;verticalAlign=top;spacingLeft=4;spacingRight=4;overflow=hidden;rotatable=0;points=[[0,0.5],[1,0.5]];portConstraint=eastwest;whiteSpace=wrap;html=1;" vertex="1" parent="urL7mEImCn63v73o6za4-25">
          <mxGeometry y="30" width="160" height="26" as="geometry" />
        </mxCell>
        <mxCell id="urL7mEImCn63v73o6za4-27" value="Second shift of 28th February" style="swimlane;fontStyle=0;childLayout=stackLayout;horizontal=1;startSize=30;strokeColor=#FFFAA0;strokeWidth=3;fillColor=none;horizontalStack=0;resizeParent=1;resizeParentMax=0;resizeLast=0;collapsible=1;marginBottom=0;whiteSpace=wrap;html=1;" vertex="1" parent="1">
          <mxGeometry x="1100" y="250" width="185" height="56" as="geometry" />
        </mxCell>
        <mxCell id="urL7mEImCn63v73o6za4-28" value="Activity" style="text;strokeColor=#FFFAA0;strokeWidth=3;fillColor=none;align=center;verticalAlign=top;spacingLeft=4;spacingRight=4;overflow=hidden;rotatable=0;points=[[0,0.5],[1,0.5]];portConstraint=eastwest;whiteSpace=wrap;html=1;" vertex="1" parent="urL7mEImCn63v73o6za4-27">
          <mxGeometry y="30" width="185" height="26" as="geometry" />
        </mxCell>
        <mxCell id="urL7mEImCn63v73o6za4-29" value="" style="endArrow=classic;html=1;rounded=0;curved=0;exitX=-0.022;exitY=-0.154;exitDx=0;exitDy=0;exitPerimeter=0;entryX=0.442;entryY=-0.04;entryDx=0;entryDy=0;entryPerimeter=0;" edge="1" parent="1" source="urL7mEImCn63v73o6za4-16" target="urL7mEImCn63v73o6za4-7">
          <mxGeometry relative="1" as="geometry">
            <mxPoint x="540" y="170" as="sourcePoint" />
            <mxPoint x="590" y="-240" as="targetPoint" />
            <Array as="points" />
          </mxGeometry>
        </mxCell>
        <mxCell id="urL7mEImCn63v73o6za4-30" value="performs or performed" style="edgeLabel;resizable=0;html=1;;align=center;verticalAlign=middle;" connectable="0" vertex="1" parent="urL7mEImCn63v73o6za4-29">
          <mxGeometry relative="1" as="geometry">
            <mxPoint x="-4" y="5" as="offset" />
          </mxGeometry>
        </mxCell>
        <mxCell id="urL7mEImCn63v73o6za4-31" value="Nurse 2" style="swimlane;fontStyle=0;childLayout=stackLayout;horizontal=1;startSize=26;strokeColor=#E5DFEC;strokeWidth=3;fillColor=none;horizontalStack=0;resizeParent=1;resizeParentMax=0;resizeLast=0;collapsible=1;marginBottom=0;whiteSpace=wrap;html=1;" vertex="1" parent="1">
          <mxGeometry x="770" y="110" width="90" height="52" as="geometry" />
        </mxCell>
        <mxCell id="urL7mEImCn63v73o6za4-32" value="Person" style="text;strokeColor=#E5DFEC;strokeWidth=3;fillColor=none;align=center;verticalAlign=top;spacingLeft=4;spacingRight=4;overflow=hidden;rotatable=0;points=[[0,0.5],[1,0.5]];portConstraint=eastwest;whiteSpace=wrap;html=1;" vertex="1" parent="urL7mEImCn63v73o6za4-31">
          <mxGeometry y="26" width="90" height="26" as="geometry" />
        </mxCell>
        <mxCell id="urL7mEImCn63v73o6za4-33" value="" style="endArrow=classic;html=1;rounded=0;curved=0;entryX=0.373;entryY=-0.02;entryDx=0;entryDy=0;entryPerimeter=0;exitX=0.425;exitY=1.077;exitDx=0;exitDy=0;exitPerimeter=0;" edge="1" parent="1">
          <mxGeometry relative="1" as="geometry">
            <mxPoint x="820.0000000000002" y="165.12200000000007" as="sourcePoint" />
            <mxPoint x="821.4299999999998" y="248" as="targetPoint" />
            <Array as="points" />
          </mxGeometry>
        </mxCell>
        <mxCell id="urL7mEImCn63v73o6za4-34" value="performs or performed" style="edgeLabel;resizable=0;html=1;;align=center;verticalAlign=middle;" connectable="0" vertex="1" parent="urL7mEImCn63v73o6za4-33">
          <mxGeometry relative="1" as="geometry">
            <mxPoint x="-6" y="-1" as="offset" />
          </mxGeometry>
        </mxCell>
        <mxCell id="urL7mEImCn63v73o6za4-35" value="" style="endArrow=classic;html=1;rounded=0;curved=1;entryX=0.5;entryY=0;entryDx=0;entryDy=0;exitX=1;exitY=0.25;exitDx=0;exitDy=0;" edge="1" parent="1" source="urL7mEImCn63v73o6za4-15" target="urL7mEImCn63v73o6za4-27">
          <mxGeometry relative="1" as="geometry">
            <mxPoint x="830" y="120" as="sourcePoint" />
            <mxPoint x="694" y="234" as="targetPoint" />
            <Array as="points">
              <mxPoint x="1030" y="-10" />
            </Array>
          </mxGeometry>
        </mxCell>
        <mxCell id="urL7mEImCn63v73o6za4-36" value="performs or performed" style="edgeLabel;resizable=0;html=1;;align=center;verticalAlign=middle;" connectable="0" vertex="1" parent="urL7mEImCn63v73o6za4-35">
          <mxGeometry relative="1" as="geometry">
            <mxPoint x="122" y="141" as="offset" />
          </mxGeometry>
        </mxCell>
        <mxCell id="urL7mEImCn63v73o6za4-39" value="" style="endArrow=classic;html=1;rounded=0;entryX=0.941;entryY=-0.027;entryDx=0;entryDy=0;exitX=1.049;exitY=0.217;exitDx=0;exitDy=0;exitPerimeter=0;entryPerimeter=0;curved=1;" edge="1" parent="1" source="urL7mEImCn63v73o6za4-32" target="urL7mEImCn63v73o6za4-2">
          <mxGeometry relative="1" as="geometry">
            <mxPoint x="964" y="210" as="sourcePoint" />
            <mxPoint x="830" y="488" as="targetPoint" />
            <Array as="points">
              <mxPoint x="1100" y="250" />
            </Array>
          </mxGeometry>
        </mxCell>
        <mxCell id="urL7mEImCn63v73o6za4-40" value="is author of" style="edgeLabel;resizable=0;html=1;;align=center;verticalAlign=middle;" connectable="0" vertex="1" parent="urL7mEImCn63v73o6za4-39">
          <mxGeometry relative="1" as="geometry">
            <mxPoint x="-105" y="-5" as="offset" />
          </mxGeometry>
        </mxCell>
        <mxCell id="urL7mEImCn63v73o6za4-42" value="" style="endArrow=classic;html=1;rounded=0;exitX=-0.012;exitY=-0.018;exitDx=0;exitDy=0;exitPerimeter=0;" edge="1" parent="1" source="urL7mEImCn63v73o6za4-8" target="urL7mEImCn63v73o6za4-44">
          <mxGeometry relative="1" as="geometry">
            <mxPoint x="190" y="120.00000000000023" as="sourcePoint" />
            <mxPoint x="350" y="120" as="targetPoint" />
          </mxGeometry>
        </mxCell>
        <mxCell id="urL7mEImCn63v73o6za4-43" value="occurred at date" style="edgeLabel;resizable=0;html=1;;align=center;verticalAlign=middle;" connectable="0" vertex="1" parent="urL7mEImCn63v73o6za4-42">
          <mxGeometry relative="1" as="geometry" />
        </mxCell>
        <mxCell id="urL7mEImCn63v73o6za4-44" value="2025-02-27T12:00/24:00" style="swimlane;fontStyle=0;childLayout=stackLayout;horizontal=1;startSize=26;strokeColor=#DDD9C3;strokeWidth=2;fillColor=none;horizontalStack=0;resizeParent=1;resizeParentMax=0;resizeLast=0;collapsible=1;marginBottom=0;whiteSpace=wrap;html=1;" vertex="1" parent="1">
          <mxGeometry x="100" y="360" width="150" height="52" as="geometry" />
        </mxCell>
        <mxCell id="urL7mEImCn63v73o6za4-45" value="Date" style="text;strokeColor=#DDD9C3;strokeWidth=2;fillColor=#DDD9C3;align=center;verticalAlign=top;spacingLeft=4;spacingRight=4;overflow=hidden;rotatable=0;points=[[0,0.5],[1,0.5]];portConstraint=eastwest;whiteSpace=wrap;html=1;" vertex="1" parent="urL7mEImCn63v73o6za4-44">
          <mxGeometry y="26" width="150" height="26" as="geometry" />
        </mxCell>
        <mxCell id="urL7mEImCn63v73o6za4-46" value="2025-02-28T00:00/12:00" style="swimlane;fontStyle=0;childLayout=stackLayout;horizontal=1;startSize=26;strokeColor=#DDD9C3;strokeWidth=2;fillColor=none;horizontalStack=0;resizeParent=1;resizeParentMax=0;resizeLast=0;collapsible=1;marginBottom=0;whiteSpace=wrap;html=1;" vertex="1" parent="1">
          <mxGeometry x="560" y="334" width="150" height="52" as="geometry" />
        </mxCell>
        <mxCell id="urL7mEImCn63v73o6za4-47" value="Date" style="text;strokeColor=#DDD9C3;strokeWidth=2;fillColor=#DDD9C3;align=center;verticalAlign=top;spacingLeft=4;spacingRight=4;overflow=hidden;rotatable=0;points=[[0,0.5],[1,0.5]];portConstraint=eastwest;whiteSpace=wrap;html=1;" vertex="1" parent="urL7mEImCn63v73o6za4-46">
          <mxGeometry y="26" width="150" height="26" as="geometry" />
        </mxCell>
        <mxCell id="urL7mEImCn63v73o6za4-49" value="" style="endArrow=classic;html=1;rounded=0;exitX=-0.027;exitY=-0.058;exitDx=0;exitDy=0;exitPerimeter=0;entryX=0.43;entryY=-0.043;entryDx=0;entryDy=0;entryPerimeter=0;" edge="1" parent="1" source="urL7mEImCn63v73o6za4-26" target="urL7mEImCn63v73o6za4-46">
          <mxGeometry relative="1" as="geometry">
            <mxPoint x="700" y="270" as="sourcePoint" />
            <mxPoint x="599" y="350" as="targetPoint" />
          </mxGeometry>
        </mxCell>
        <mxCell id="urL7mEImCn63v73o6za4-50" value="rico:occurredAtDate" style="edgeLabel;resizable=0;html=1;;align=center;verticalAlign=middle;" connectable="0" vertex="1" parent="urL7mEImCn63v73o6za4-49">
          <mxGeometry relative="1" as="geometry">
            <mxPoint x="-5" as="offset" />
          </mxGeometry>
        </mxCell>
        <mxCell id="urL7mEImCn63v73o6za4-51" value="2025-02-28T12:00/24:00" style="swimlane;fontStyle=0;childLayout=stackLayout;horizontal=1;startSize=26;strokeColor=#DDD9C3;strokeWidth=2;fillColor=none;horizontalStack=0;resizeParent=1;resizeParentMax=0;resizeLast=0;collapsible=1;marginBottom=0;whiteSpace=wrap;html=1;" vertex="1" parent="1">
          <mxGeometry x="1403.55" y="380" width="150" height="52" as="geometry" />
        </mxCell>
        <mxCell id="urL7mEImCn63v73o6za4-52" value="Date" style="text;strokeColor=#DDD9C3;strokeWidth=2;fillColor=#DDD9C3;align=center;verticalAlign=top;spacingLeft=4;spacingRight=4;overflow=hidden;rotatable=0;points=[[0,0.5],[1,0.5]];portConstraint=eastwest;whiteSpace=wrap;html=1;" vertex="1" parent="urL7mEImCn63v73o6za4-51">
          <mxGeometry y="26" width="150" height="26" as="geometry" />
        </mxCell>
        <mxCell id="urL7mEImCn63v73o6za4-53" value="" style="endArrow=classic;html=1;rounded=0;exitX=0.994;exitY=-0.007;exitDx=0;exitDy=0;exitPerimeter=0;" edge="1" parent="1" source="urL7mEImCn63v73o6za4-28" target="urL7mEImCn63v73o6za4-51">
          <mxGeometry relative="1" as="geometry">
            <mxPoint x="1300" y="284" as="sourcePoint" />
            <mxPoint x="1412.59" y="320" as="targetPoint" />
          </mxGeometry>
        </mxCell>
        <mxCell id="urL7mEImCn63v73o6za4-54" value="occurred at date" style="edgeLabel;resizable=0;html=1;;align=center;verticalAlign=middle;" connectable="0" vertex="1" parent="urL7mEImCn63v73o6za4-53">
          <mxGeometry relative="1" as="geometry">
            <mxPoint x="22" y="5" as="offset" />
          </mxGeometry>
        </mxCell>
      </root>
    </mxGraphModel>
  </diagram>
</mxfile>
